<svg xmlns="http://www.w3.org/2000/svg" viewBox="0 0 717.17 470.89">
    <title>romblogo</title>
    <g id="Layer_2" data-name="Layer 2">
        <g id="Layer_1-2" data-name="Layer 1">
            <path class="cls-1" d="M235.44,470.89a4.25,4.25,0,0,1-3-1.25L1.25,238.46a4.26,4.26,0,0,1,0-6L232.43,1.25a4.26,4.26,0,0,1,6,0l72.32,72.32a4.26,4.26,0,1,1-6,6L235.44,10.29,10.29,235.44,235.44,460.6l78.77-78.77a4.26,4.26,0,0,1,6,6l-81.78,81.78A4.25,4.25,0,0,1,235.44,470.89Z" />
            <path class="cls-1" d="M222.64,220.6H209.3v36.13H196.43V171.25q5.84-.42,12.87-.67t13.8-.25a57.49,57.49,0,0,1,14.36,1.59,28.42,28.42,0,0,1,10.09,4.6,18.7,18.7,0,0,1,5.93,7.36,23.94,23.94,0,0,1,1.95,9.87,25.91,25.91,0,0,1-1.62,9.49,24.65,24.65,0,0,1-4.31,7.23,25.77,25.77,0,0,1-6.34,5.27,43.5,43.5,0,0,1-7.64,3.6q4.26,6.61,8.2,12.59a97.54,97.54,0,0,0,7.92,10.54,40.15,40.15,0,0,0,8.06,7.23,15.58,15.58,0,0,0,8.71,2.68h.93v3.76a29.53,29.53,0,0,1-5.19,1.09,48.48,48.48,0,0,1-6.39.42,24.11,24.11,0,0,1-7.87-1.13,16.91,16.91,0,0,1-6.34-4.27,56.22,56.22,0,0,1-6.71-8.66q-3.61-5.52-8.89-14.3Zm-9.35-5.94a87.46,87.46,0,0,0,14.12-.92,25.23,25.23,0,0,0,8.29-2.59,9.81,9.81,0,0,0,2.41-2,10.93,10.93,0,0,0,1.9-3.22,21.46,21.46,0,0,0,1.2-4.77,46.77,46.77,0,0,0,.42-6.73,20.28,20.28,0,0,0-1.58-8.41,14.1,14.1,0,0,0-4.54-5.65,19.71,19.71,0,0,0-7.18-3.18,41.62,41.62,0,0,0-9.59-1q-2.69,0-4.63.12t-4.82.38v38Zm202-1.09a54.6,54.6,0,0,1-2.92,18.4,37.16,37.16,0,0,1-8.66,14,38,38,0,0,1-14.4,8.86,59.77,59.77,0,0,1-20.14,3.1,57,57,0,0,1-20.1-3.18,35.42,35.42,0,0,1-13.8-9,36.09,36.09,0,0,1-7.92-14,60.79,60.79,0,0,1-2.55-18.19,58.64,58.64,0,0,1,2.59-18.07,34.63,34.63,0,0,1,8.06-13.67,35.66,35.66,0,0,1,13.89-8.66,59.54,59.54,0,0,1,20-3,60.89,60.89,0,0,1,20.1,3,38,38,0,0,1,14.36,8.66,35.78,35.78,0,0,1,8.61,13.67A53.41,53.41,0,0,1,415.27,213.57Zm-13.8,0a56.73,56.73,0,0,0-1.85-15A31.32,31.32,0,0,0,393.83,187a26.35,26.35,0,0,0-10-7.53,35.73,35.73,0,0,0-14.49-2.68,61.68,61.68,0,0,0-13.61,1.42,25.53,25.53,0,0,0-10,4.27,12,12,0,0,0-3.43,4.68,34.13,34.13,0,0,0-2.22,7.23,74,74,0,0,0-1.2,9q-.37,4.89-.37,10.16a69.51,69.51,0,0,0,1.53,15,32.9,32.9,0,0,0,5,11.92,23.94,23.94,0,0,0,9.4,7.86q5.88,2.85,14.68,2.84a63.65,63.65,0,0,0,14.31-1.38,27,27,0,0,0,10.51-5,11.24,11.24,0,0,0,3.43-4.73,41.05,41.05,0,0,0,2.31-7.44,70.59,70.59,0,0,0,1.34-9.16Q401.46,218.59,401.47,213.57Zm175.21,43.16-7.78-65.32-33.34,65.32h-5.93l-36.21-65.32L487,256.73H478.6l9.72-86.23h7.78l38.62,70.34,36.21-70.34h7.87l10.56,86.23Zm140.49-23.17a25.5,25.5,0,0,1-1.9,10.12,19,19,0,0,1-5.93,7.57A28,28,0,0,1,698.92,256a62.4,62.4,0,0,1-15.28,1.63q-3,0-6.58-.08t-7.36-.25q-3.75-.17-7.36-.42t-6.58-.5V171.67q5.56-.58,11.81-.84t12.46-.25a71.73,71.73,0,0,1,13.61,1.17,33.73,33.73,0,0,1,10.28,3.6,17.25,17.25,0,0,1,6.53,6.32,18,18,0,0,1,2.27,9.24,17.92,17.92,0,0,1-5.6,13.46,21.87,21.87,0,0,1-5.83,4,31.57,31.57,0,0,1-6.71,2.3v.25a38.24,38.24,0,0,1,10,3.22,25,25,0,0,1,7,5.06,19.55,19.55,0,0,1,4.17,6.61A21.86,21.86,0,0,1,717.17,233.56Zm-17.78-41.32a16.06,16.06,0,0,0-1.44-7.11,12.68,12.68,0,0,0-4.08-4.81,17.94,17.94,0,0,0-6.44-2.76,38,38,0,0,0-8.52-.88q-2.13,0-3.61,0t-2.64.13l-2.08.17-1.94.17V208.3H681a34.91,34.91,0,0,0,6.9-.63,23.09,23.09,0,0,0,5.23-1.63,10.27,10.27,0,0,0,2.13-1.46,9.78,9.78,0,0,0,2-2.59,16.25,16.25,0,0,0,1.53-4A23.65,23.65,0,0,0,699.38,192.24Zm4.35,41a18.44,18.44,0,0,0-1.9-8.7,16.45,16.45,0,0,0-5.09-5.85,21.19,21.19,0,0,0-7.46-3.26,39,39,0,0,0-9-1H668.64v36.22l5.42.46q3.38.29,7.46.29,2,0,4.26-.12t4.31-.42q2.08-.29,3.85-.71a12.25,12.25,0,0,0,2.87-1,11.87,11.87,0,0,0,2.41-1.59,9.92,9.92,0,0,0,2.22-2.84,18.12,18.12,0,0,0,1.67-4.6A30.67,30.67,0,0,0,703.74,233.23Z" />
            <path class="cls-1" d="M215.43,315.58l-2-18.77-8.65,18.77h-1.54l-9.4-18.77-1.66,18.77H190l2.52-24.78h2l10,20.21,9.4-20.21h2l2.74,24.78Z" />
            <path class="cls-1" d="M244.12,315.58l-3.08-9-9.47.12-3.32,8.89h-2.45l9.76-24.39,2.88-.84,9.13,25.23ZM240.54,305l-4.09-11.49L232.18,305Z" />
            <path class="cls-1" d="M262.5,305.19H259v10.38H255.7V291q1.51-.12,3.34-.19t3.58-.07a13.5,13.5,0,0,1,3.72.46,7.07,7.07,0,0,1,2.62,1.32,5.3,5.3,0,0,1,1.54,2.11,7.52,7.52,0,0,1,.5,2.84,8.14,8.14,0,0,1-.42,2.73,7.2,7.2,0,0,1-1.12,2.08,6.81,6.81,0,0,1-1.65,1.51,10.81,10.81,0,0,1-2,1q1.11,1.9,2.13,3.62a28.24,28.24,0,0,0,2.05,3,10.91,10.91,0,0,0,2.09,2.08,3.78,3.78,0,0,0,2.26.77h.24v1.08a7,7,0,0,1-1.35.31,11.46,11.46,0,0,1-1.66.12,5.7,5.7,0,0,1-2-.32,4.4,4.4,0,0,1-1.65-1.23,16.11,16.11,0,0,1-1.74-2.49q-.94-1.59-2.31-4.11Zm-2.43-1.71a20.62,20.62,0,0,0,3.66-.26,6.11,6.11,0,0,0,2.15-.75,2.59,2.59,0,0,0,.62-.58A3.18,3.18,0,0,0,267,301a6.66,6.66,0,0,0,.31-1.37,14.8,14.8,0,0,0,.11-1.93,6.35,6.35,0,0,0-.41-2.42,4,4,0,0,0-1.18-1.62,4.88,4.88,0,0,0-1.86-.91,9.77,9.77,0,0,0-2.49-.29c-.46,0-.87,0-1.2,0l-1.25.11v10.91Z" />
            <path class="cls-1" d="M300.89,292.15a5.6,5.6,0,0,0-2.69.73,14.2,14.2,0,0,0-3.05,2.44q-.48.48-1,1.08l-1.18,1.26L291.69,299l-1.2,1.35q.94,1.66,1.91,3.33t2,3.22q1,1.55,2,2.91a20.8,20.8,0,0,0,2,2.36,9.9,9.9,0,0,0,2.05,1.57,4.21,4.21,0,0,0,2.07.58h.29v1.08a14.28,14.28,0,0,1-1.54.32,12.68,12.68,0,0,1-1.83.11,4.54,4.54,0,0,1-2.15-.54,8.57,8.57,0,0,1-2-1.49,17.83,17.83,0,0,1-1.87-2.21q-.91-1.26-1.8-2.72t-1.77-3q-.88-1.56-1.79-3.08l-.48.53-.64.7-.61.67-.41.46v10.43h-3.34V291h3.34v11.77l1.08-1.3,1.33-1.57,1.45-1.71,1.44-1.67,1.32-1.48q.63-.68,1.08-1.14a20,20,0,0,1,1.61-1.47,7,7,0,0,1,1.43-.9,6,6,0,0,1,1.47-.46,10.15,10.15,0,0,1,1.74-.13,5.79,5.79,0,0,1,.79,0,2.53,2.53,0,0,1,.53.12v1.06Z" />
            <path class="cls-1" d="M323.82,315.58H310.67V291h12.62l-.24,1.78-9,.12v8.72l8.51.1-.24,1.56-8.27.19v10.24l10,.19Z" />
            <path class="cls-1" d="M338.3,315.58V292.87l-7.57-.12L331,291h18.24l-.24,1.71-7.33.19v22.71Z" />
            <path class="cls-1" d="M357.57,315.58V291h3.34v24.61Z" />
            <path class="cls-1" d="M391.35,315.7,374,296.52h-.07q.05,2.71.1,5,0,1,0,1.91t0,1.74c0,.53,0,1,0,1.37s0,.65,0,.79v8.29h-2.21V290.8h1.47l17.4,19.13h0q0-2.52-.07-4.69c0-.61,0-1.23,0-1.85s0-1.21,0-1.77,0-1,0-1.48V291h2.21v24.7Z" />
            <path class="cls-1" d="M419.49,305.36l-5.48-.29.26-1.27h8.46v10a15.85,15.85,0,0,1-1.9.72q-1.13.36-2.45.66t-2.74.49a20.5,20.5,0,0,1-2.74.19,10,10,0,0,1-4.52-.93,7.9,7.9,0,0,1-3-2.62,11.55,11.55,0,0,1-1.69-4,24.05,24.05,0,0,1-.53-5.24,17,17,0,0,1,.73-5.18,10.35,10.35,0,0,1,2.21-3.9,9.59,9.59,0,0,1,3.71-2.46,14.64,14.64,0,0,1,5.24-.85q.75,0,1.67.06c.62,0,1.23.09,1.83.16s1.17.14,1.71.22l1.33.22-.87,2.86q-.62-.19-1.57-.4t-2-.36q-1-.15-2.09-.26a18.29,18.29,0,0,0-1.86-.11,14.17,14.17,0,0,0-2.54.22,4.83,4.83,0,0,0-2.2,1,3,3,0,0,0-.89,1.37,12.15,12.15,0,0,0-.53,2.14,24.65,24.65,0,0,0-.26,2.57q-.07,1.37-.07,2.69a27,27,0,0,0,.34,4.43,11.81,11.81,0,0,0,1.08,3.45,5.84,5.84,0,0,0,1.93,2.23A5.15,5.15,0,0,0,413,314q.82,0,1.73-.06c.61,0,1.21-.09,1.79-.16s1.14-.14,1.66-.22,1-.16,1.33-.24Z" />
            <path class="cls-1" d="M459.2,308.44a7,7,0,0,1-.55,2.73,7.2,7.2,0,0,1-1.62,2.39,8.14,8.14,0,0,1-2.62,1.71,9.1,9.1,0,0,1-3.54.65,13.37,13.37,0,0,1-3.74-.48,14.41,14.41,0,0,1-3.09-1.3l1.2-2.88a14.1,14.1,0,0,0,1.27.76,16.1,16.1,0,0,0,1.59.73,13.92,13.92,0,0,0,1.74.56,7.13,7.13,0,0,0,1.74.23,7.94,7.94,0,0,0,2-.22,5.28,5.28,0,0,0,1.36-.53,3.24,3.24,0,0,0,.55-.41,2.15,2.15,0,0,0,.47-.65,4,4,0,0,0,.32-1,7.68,7.68,0,0,0,.12-1.48,3.51,3.51,0,0,0-.49-1.91,4.46,4.46,0,0,0-1.31-1.33,10.08,10.08,0,0,0-1.85-1l-2.1-.87q-1.07-.44-2.1-1a7.79,7.79,0,0,1-1.85-1.35,6.15,6.15,0,0,1-1.31-1.93,6.93,6.93,0,0,1-.49-2.76,5.4,5.4,0,0,1,.53-2.27,6.63,6.63,0,0,1,1.53-2.07,7.93,7.93,0,0,1,2.45-1.51,8.77,8.77,0,0,1,3.3-.59,21.57,21.57,0,0,1,2.79.17q1.3.17,2.6.43l-.75,2.91a27.94,27.94,0,0,0-2.86-.83,12.23,12.23,0,0,0-2.79-.35,9.74,9.74,0,0,0-1.78.14,3,3,0,0,0-1.18.43,2.72,2.72,0,0,0-.74,1,4.61,4.61,0,0,0-.31,1.93,3,3,0,0,0,.49,1.74,4.66,4.66,0,0,0,1.31,1.24,11.19,11.19,0,0,0,1.85.95l2.11.87a20.75,20.75,0,0,1,2.11,1,8,8,0,0,1,1.85,1.38,6.16,6.16,0,0,1,1.31,2A7.07,7.07,0,0,1,459.2,308.44Z" />
            <path class="cls-1" d="M473.71,315.58V292.87l-7.57-.12.24-1.78h18.24l-.24,1.71-7.33.19v22.71Z" />
            <path class="cls-1" d="M499.78,305.19h-3.46v10.38H493V291q1.51-.12,3.34-.19t3.58-.07a13.5,13.5,0,0,1,3.72.46,7.07,7.07,0,0,1,2.62,1.32,5.3,5.3,0,0,1,1.54,2.11,7.52,7.52,0,0,1,.5,2.84,8.14,8.14,0,0,1-.42,2.73,7.2,7.2,0,0,1-1.12,2.08,6.81,6.81,0,0,1-1.65,1.51,10.8,10.8,0,0,1-2,1q1.11,1.9,2.13,3.62a28.24,28.24,0,0,0,2.05,3,10.91,10.91,0,0,0,2.09,2.08,3.78,3.78,0,0,0,2.26.77h.24v1.08a7,7,0,0,1-1.35.31,11.46,11.46,0,0,1-1.66.12,5.7,5.7,0,0,1-2-.32,4.4,4.4,0,0,1-1.65-1.23,16.11,16.11,0,0,1-1.74-2.49q-.94-1.59-2.31-4.11Zm-2.43-1.71a20.62,20.62,0,0,0,3.66-.26,6.11,6.11,0,0,0,2.15-.75,2.59,2.59,0,0,0,.62-.58,3.18,3.18,0,0,0,.49-.93,6.66,6.66,0,0,0,.31-1.37,14.8,14.8,0,0,0,.11-1.93,6.34,6.34,0,0,0-.41-2.42,4,4,0,0,0-1.18-1.62,4.88,4.88,0,0,0-1.86-.91,9.77,9.77,0,0,0-2.49-.29c-.46,0-.87,0-1.2,0l-1.25.11v10.91Z" />
            <path class="cls-1" d="M534.5,315.58l-3.08-9-9.47.12-3.32,8.89h-2.45l9.76-24.39,2.88-.84L538,315.58ZM530.92,305l-4.09-11.49L522.55,305Z" />
            <path class="cls-1" d="M549,315.58V292.87l-7.57-.12.24-1.78h18.24l-.24,1.71-7.33.19v22.71Z" />
            <path class="cls-1" d="M581.42,315.58H568.27V291h12.62l-.24,1.78-9,.12v8.72l8.51.1-.24,1.56-8.27.19v10.24l10,.19Z" />
            <path class="cls-1" d="M606.6,305.36l-5.48-.29.26-1.27h8.46v10a15.86,15.86,0,0,1-1.9.72q-1.13.36-2.45.66t-2.74.49a20.5,20.5,0,0,1-2.74.19,10,10,0,0,1-4.52-.93,7.9,7.9,0,0,1-3-2.62,11.56,11.56,0,0,1-1.69-4,24.06,24.06,0,0,1-.53-5.24,17,17,0,0,1,.73-5.18,10.35,10.35,0,0,1,2.21-3.9,9.59,9.59,0,0,1,3.71-2.46,14.65,14.65,0,0,1,5.24-.85q.75,0,1.67.06c.62,0,1.23.09,1.83.16s1.17.14,1.71.22l1.33.22-.87,2.86q-.62-.19-1.57-.4t-2-.36q-1-.15-2.09-.26a18.3,18.3,0,0,0-1.86-.11,14.17,14.17,0,0,0-2.54.22,4.83,4.83,0,0,0-2.2,1,3,3,0,0,0-.89,1.37,12.15,12.15,0,0,0-.53,2.14,24.62,24.62,0,0,0-.26,2.57q-.07,1.37-.07,2.69a27,27,0,0,0,.34,4.43,11.81,11.81,0,0,0,1.08,3.45,5.84,5.84,0,0,0,1.93,2.23,5.15,5.15,0,0,0,2.92.79q.82,0,1.73-.06c.61,0,1.21-.09,1.79-.16s1.14-.14,1.66-.22,1-.16,1.33-.24Z" />
            <path class="cls-1" d="M629.33,315.58h-3.24v-9.44L617.65,291h3.72l6.9,13.1,6.46-13.1h2.33l-7.74,15.16Z" />
        </g>
    </g>
</svg>